<?xml version="1.0" encoding="utf-8"?>
<!-- Generator: Adobe Illustrator 16.0.0, SVG Export Plug-In . SVG Version: 6.00 Build 0)  -->
<!DOCTYPE svg PUBLIC "-//W3C//DTD SVG 1.1//EN" "http://www.w3.org/Graphics/SVG/1.1/DTD/svg11.dtd">
<svg version="1.1" id="Layer_1" xmlns="http://www.w3.org/2000/svg" xmlns:xlink="http://www.w3.org/1999/xlink" x="0px" y="0px"
	 width="90px" height="99.333px" viewBox="0 0 90 99.333" enable-background="new 0 0 90 99.333" xml:space="preserve">
<path fill="#FFFFFF" d="M64.676,0H7.325C3.286,0,0,3.354,0,7.475v46.05C0,57.646,3.286,61,7.325,61h57.35
	c4.039,0,7.325-3.353,7.326-7.474V7.475C72.001,3.354,68.715,0,64.676,0z M59,6h6v7h-6V6z M48,6h8v7h-8V6z M37,6h8v7h-8V6z M26,6h8
	v7h-8V6z M16,6h7v7h-7V6z M7,6h6v7H7V6z M13,55H7v-6h6V55z M23,55h-7v-6h7V55z M33,55h-7v-6h7V55z M29,47h-6V46.89h-4V47h-5V46.89
	h-4V47H8V46.89H7v-31h27v31.111h-1v-0.108h-4V47z M45,55h-9v-6h9V55z M56,55h-8v-6h8V55z M65,55h-6v-6h6V55z M65,46.89h-1V47h-3
	V46.89h-4V47h-4V46.89h-4V47h-6V46.89h-4V47h-1V15.889h27V46.89z"/>
</svg>
