<?xml version="1.0" encoding="utf-8"?>
<!-- Generator: Adobe Illustrator 16.0.0, SVG Export Plug-In . SVG Version: 6.00 Build 0)  -->
<!DOCTYPE svg PUBLIC "-//W3C//DTD SVG 1.1//EN" "http://www.w3.org/Graphics/SVG/1.1/DTD/svg11.dtd">
<svg version="1.1" id="Layer_1" xmlns="http://www.w3.org/2000/svg" xmlns:xlink="http://www.w3.org/1999/xlink" x="0px" y="0px"
	 width="90px" height="99.333px" viewBox="0 0 90 99.333" enable-background="new 0 0 90 99.333" xml:space="preserve">
<path fill="#FFFFFF" d="M59.295,21.345H29.866c-2.87,0-5.118,1.894-5.118,4.312v25.165c0,2.418,2.248,4.312,5.118,4.312h5.469
	l-0.067,5.842c-0.009,0.812,0.857,1.479,1.935,1.491l0.651,0.009c1.077,0.014,16.711-10.378,16.711-10.378
	S39.173,41.671,38.094,41.659l-0.649-0.008c-1.079-0.012-1.959,0.636-1.969,1.447l-0.08,6.919h-5.529V26.463h29.429v23.554
	l-4.735,5.117h4.735c2.87,0,5.118-1.894,5.118-4.313V25.658C64.413,23.239,62.165,21.345,59.295,21.345z"/>
<g>
	<path fill="#FFFFFF" d="M26.516,76.53v-8.5h1.729v7.054h4.302v1.446H26.516z"/>
	<path fill="#FFFFFF" d="M34.628,72.297c0-0.873,0.131-1.605,0.392-2.197c0.195-0.437,0.461-0.828,0.798-1.176
		s0.707-0.604,1.107-0.771c0.534-0.226,1.149-0.339,1.847-0.339c1.263,0,2.272,0.392,3.031,1.175
		c0.758,0.783,1.137,1.873,1.137,3.268c0,1.384-0.376,2.466-1.128,3.247c-0.752,0.78-1.757,1.172-3.016,1.172
		c-1.273,0-2.287-0.39-3.04-1.166C35.005,74.733,34.628,73.662,34.628,72.297z M36.411,72.239c0,0.971,0.225,1.705,0.673,2.206
		c0.448,0.501,1.018,0.752,1.707,0.752c0.689,0,1.256-0.249,1.698-0.746c0.442-0.497,0.664-1.241,0.664-2.235
		c0-0.981-0.215-1.714-0.646-2.197c-0.43-0.483-1.002-0.725-1.716-0.725s-1.288,0.243-1.725,0.732S36.411,71.253,36.411,72.239z"/>
	<path fill="#FFFFFF" d="M45.136,72.297c0-0.873,0.131-1.605,0.393-2.197c0.194-0.437,0.46-0.828,0.797-1.176
		c0.338-0.348,0.707-0.604,1.108-0.771c0.533-0.226,1.148-0.339,1.848-0.339c1.263,0,2.271,0.392,3.029,1.175
		c0.759,0.783,1.139,1.873,1.139,3.268c0,1.384-0.377,2.466-1.129,3.247c-0.752,0.78-1.757,1.172-3.016,1.172
		c-1.274,0-2.288-0.39-3.04-1.166S45.136,73.662,45.136,72.297z M46.92,72.239c0,0.971,0.224,1.705,0.672,2.206
		s1.017,0.752,1.707,0.752c0.689,0,1.257-0.249,1.698-0.746c0.44-0.497,0.663-1.241,0.663-2.235c0-0.981-0.216-1.714-0.645-2.197
		c-0.431-0.483-1.004-0.725-1.717-0.725s-1.288,0.243-1.725,0.732C47.137,70.515,46.92,71.253,46.92,72.239z"/>
	<path fill="#FFFFFF" d="M55.995,76.53V67.96h2.776c1.053,0,1.738,0.043,2.058,0.129c0.491,0.128,0.902,0.407,1.233,0.837
		c0.33,0.432,0.496,0.988,0.496,1.67c0,0.526-0.096,0.969-0.285,1.327c-0.191,0.358-0.435,0.64-0.729,0.845
		c-0.293,0.204-0.593,0.34-0.896,0.406c-0.413,0.082-1.012,0.123-1.795,0.123h-1.128v3.232H55.995z M57.727,69.409v2.433h0.946
		c0.683,0,1.139-0.045,1.367-0.134c0.23-0.09,0.411-0.23,0.542-0.421c0.131-0.193,0.194-0.413,0.194-0.667
		c0-0.312-0.091-0.568-0.274-0.771c-0.181-0.202-0.415-0.329-0.694-0.38c-0.207-0.039-0.622-0.059-1.245-0.059L57.727,69.409
		L57.727,69.409z"/>
</g>
</svg>
