<?xml version="1.0" encoding="utf-8"?>
<!-- Generator: Adobe Illustrator 16.0.0, SVG Export Plug-In . SVG Version: 6.00 Build 0)  -->
<!DOCTYPE svg PUBLIC "-//W3C//DTD SVG 1.1//EN" "http://www.w3.org/Graphics/SVG/1.1/DTD/svg11.dtd">
<svg version="1.1" id="Layer_1" xmlns="http://www.w3.org/2000/svg" xmlns:xlink="http://www.w3.org/1999/xlink" x="0px" y="0px"
	 width="90px" height="99.333px" viewBox="0 0 90 99.333" enable-background="new 0 0 90 99.333" xml:space="preserve">
<path d="M38.837,61.197c0,4.146-3.105,7.507-6.937,7.507l0,0c-3.833,0-6.938-3.36-6.938-7.507V27.704
	c0-4.146,3.105-7.506,6.938-7.506l0,0c3.832,0,6.937,3.36,6.937,7.506V61.197z"/>
<g>
	<path d="M25.988,83.961v-7.274h2.357c0.893,0,1.476,0.037,1.747,0.108c0.417,0.109,0.766,0.348,1.047,0.713
		c0.281,0.365,0.422,0.838,0.422,1.416c0,0.447-0.081,0.822-0.243,1.127s-0.368,0.543-0.618,0.717s-0.504,0.289-0.762,0.345
		c-0.351,0.069-0.858,0.104-1.523,0.104h-0.958v2.744H25.988L25.988,83.961z M27.458,77.917v2.064h0.804
		c0.579,0,0.966-0.038,1.161-0.113c0.195-0.076,0.349-0.195,0.459-0.357c0.11-0.162,0.166-0.352,0.166-0.565
		c0-0.265-0.078-0.483-0.233-0.655c-0.155-0.172-0.352-0.279-0.59-0.322c-0.175-0.032-0.528-0.049-1.057-0.049h-0.71V77.917z"/>
	<path d="M39.59,83.961h-1.598l-0.635-1.651h-2.908l-0.601,1.651H32.29l2.833-7.274h1.554L39.59,83.961z M36.885,81.083
		l-1.002-2.699l-0.982,2.699H36.885z"/>
	<path d="M41.375,76.687h1.469v3.94c0,0.625,0.019,1.031,0.055,1.215c0.063,0.299,0.213,0.537,0.449,0.718
		c0.236,0.181,0.56,0.271,0.97,0.271c0.417,0,0.731-0.084,0.944-0.256c0.211-0.171,0.338-0.379,0.381-0.627s0.064-0.66,0.064-1.236
		v-4.024h1.469v3.821c0,0.873-0.039,1.49-0.119,1.851c-0.078,0.361-0.226,0.665-0.438,0.913c-0.214,0.248-0.499,0.445-0.856,0.594
		c-0.357,0.146-0.824,0.221-1.4,0.221c-0.694,0-1.222-0.08-1.581-0.241c-0.359-0.16-0.643-0.369-0.851-0.625
		c-0.208-0.257-0.346-0.525-0.412-0.808c-0.096-0.416-0.144-1.031-0.144-1.846L41.375,76.687L41.375,76.687z"/>
	<path d="M49.369,81.594l1.429-0.139c0.086,0.48,0.261,0.834,0.522,1.058c0.264,0.225,0.619,0.337,1.064,0.337
		c0.473,0,0.83-0.1,1.07-0.301c0.24-0.199,0.359-0.434,0.359-0.701c0-0.172-0.051-0.318-0.15-0.439
		c-0.102-0.121-0.277-0.226-0.529-0.314c-0.172-0.061-0.564-0.166-1.176-0.318c-0.787-0.195-1.34-0.436-1.657-0.72
		c-0.446-0.399-0.67-0.888-0.67-1.464c0-0.371,0.104-0.717,0.315-1.041c0.21-0.322,0.513-0.567,0.908-0.736s0.873-0.253,1.432-0.253
		c0.913,0,1.602,0.2,2.062,0.601c0.461,0.401,0.703,0.936,0.727,1.604l-1.469,0.064c-0.063-0.375-0.198-0.644-0.405-0.808
		s-0.517-0.246-0.931-0.246c-0.426,0-0.76,0.089-1.002,0.263c-0.156,0.112-0.232,0.264-0.232,0.453c0,0.172,0.072,0.318,0.218,0.44
		c0.187,0.155,0.636,0.317,1.351,0.485c0.713,0.17,1.242,0.344,1.584,0.524c0.343,0.181,0.61,0.427,0.805,0.739
		c0.193,0.312,0.291,0.699,0.291,1.158c0,0.418-0.116,0.809-0.348,1.172s-0.56,0.634-0.982,0.812
		c-0.423,0.176-0.951,0.264-1.583,0.264c-0.92,0-1.626-0.211-2.119-0.637C49.76,83.028,49.465,82.409,49.369,81.594z"/>
	<path d="M57.537,83.961v-7.274h5.395v1.231h-3.925v1.613h3.652v1.225h-3.652v1.98h4.063v1.227h-5.533V83.961z"/>
</g>
<path d="M64.838,61.197c0,4.146-3.105,7.507-6.938,7.507l0,0c-3.832,0-6.938-3.36-6.938-7.507V27.704
	c0-4.146,3.105-7.506,6.938-7.506l0,0c3.832,0,6.938,3.36,6.938,7.506V61.197z"/>
</svg>
