<?xml version="1.0" encoding="UTF-8" standalone="no"?>
<!-- Created with Inkscape (http://www.inkscape.org/) -->

<svg
   xmlns:dc="http://purl.org/dc/elements/1.1/"
   xmlns:cc="http://creativecommons.org/ns#"
   xmlns:rdf="http://www.w3.org/1999/02/22-rdf-syntax-ns#"
   xmlns:svg="http://www.w3.org/2000/svg"
   xmlns="http://www.w3.org/2000/svg"
   xmlns:sodipodi="http://sodipodi.sourceforge.net/DTD/sodipodi-0.dtd"
   xmlns:inkscape="http://www.inkscape.org/namespaces/inkscape"
   width="84"
   height="81"
   id="svg7364"
   version="1.1"
   inkscape:version="0.91 r13725"
   sodipodi:docname="eye.svg"
   inkscape:export-filename="/Users/tgunnoe/Working/worldview/web/images/wv.layers/show-hide.png"
   inkscape:export-xdpi="90"
   inkscape:export-ydpi="90">
  <defs
     id="defs7366" />
  <sodipodi:namedview
     id="base"
     pagecolor="#ffffff"
     bordercolor="#666666"
     borderopacity="1.0"
     inkscape:pageopacity="0.0"
     inkscape:pageshadow="2"
     inkscape:zoom="8.7031181"
     inkscape:cx="35.252043"
     inkscape:cy="42.990451"
     inkscape:document-units="px"
     inkscape:current-layer="layer1"
     showgrid="false"
     showguides="true"
     inkscape:guide-bbox="true"
     fit-margin-top="0"
     fit-margin-left="0"
     fit-margin-right="0"
     fit-margin-bottom="0"
     inkscape:window-width="1402"
     inkscape:window-height="862"
     inkscape:window-x="0"
     inkscape:window-y="0"
     inkscape:window-maximized="0" />
  <metadata
     id="metadata7369">
    <rdf:RDF>
      <cc:Work
         rdf:about="">
        <dc:format>image/svg+xml</dc:format>
        <dc:type
           rdf:resource="http://purl.org/dc/dcmitype/StillImage" />
        <dc:title></dc:title>
      </cc:Work>
    </rdf:RDF>
  </metadata>
  <g
     inkscape:label="Layer 1"
     inkscape:groupmode="layer"
     id="layer1"
     style="display:inline"
     transform="translate(0.00928596,0)">
    <g
       id="g4506">
      <path
         inkscape:connector-curvature="0"
         style="font-size:medium;font-style:normal;font-variant:normal;font-weight:normal;font-stretch:normal;text-indent:0;text-align:start;text-decoration:none;line-height:normal;letter-spacing:normal;word-spacing:normal;text-transform:none;direction:ltr;block-progression:tb;writing-mode:lr-tb;text-anchor:start;baseline-shift:baseline;color:#000000;fill:#cccccf;fill-opacity:0.94117647;stroke:none;stroke-width:0.5;marker:none;visibility:visible;display:inline;overflow:visible;enable-background:accumulate;font-family:Sans;-inkscape-font-specification:Sans"
         d="m 20.990714,70.624939 0,0.5 5.09375,0 0,-0.5 -5.09375,0 z m 7.09375,0 0,0.5 4.90625,0 0,-0.5 -4.90625,0 z"
         id="path4476" />
      <path
         inkscape:connector-curvature="0"
         id="rect4478"
         d="m 25.84375,69 0,0.25 0,3.25 0,0.25 0.25,0 2,0 0.25,0 0,-0.25 0,-3.25 0,-0.25 -0.25,0 -2,0 -0.25,0 z m 0.5,0.5 1.5,0 0,2.75 -1.5,0 0,-2.75 z"
         style="font-size:medium;font-style:normal;font-variant:normal;font-weight:normal;font-stretch:normal;text-indent:0;text-align:start;text-decoration:none;line-height:normal;letter-spacing:normal;word-spacing:normal;text-transform:none;direction:ltr;block-progression:tb;writing-mode:lr-tb;text-anchor:start;baseline-shift:baseline;color:#000000;fill:#cccccf;fill-opacity:0.94117647;stroke:none;stroke-width:0.49999997;marker:none;visibility:visible;display:inline;overflow:visible;enable-background:accumulate;font-family:Sans;-inkscape-font-specification:Sans" />
      <path
         inkscape:connector-curvature="0"
         style="font-size:medium;font-style:normal;font-variant:normal;font-weight:normal;font-stretch:normal;text-indent:0;text-align:start;text-decoration:none;line-height:normal;letter-spacing:normal;word-spacing:normal;text-transform:none;direction:ltr;block-progression:tb;writing-mode:lr-tb;text-anchor:start;baseline-shift:baseline;color:#000000;fill:#cccccf;fill-opacity:0.94117647;stroke:none;stroke-width:0.5;marker:none;visibility:visible;display:inline;overflow:visible;enable-background:accumulate;font-family:Sans;-inkscape-font-specification:Sans"
         d="m 20.990714,74.749939 0,0.5 1.78125,0 0,-0.5 -1.78125,0 z m 3.78125,0 0,0.5 8.21875,0 0,-0.5 -8.21875,0 z"
         id="path4480" />
      <path
         inkscape:connector-curvature="0"
         id="rect4482"
         d="m 22.5,73.125 0,0.25 0,3.25 0,0.25 0.25,0 2,0 0.25,0 0,-0.25 0,-3.25 0,-0.25 -0.25,0 -2,0 -0.25,0 z m 0.5,0.5 1.5,0 0,2.75 -1.5,0 0,-2.75 z"
         style="font-size:medium;font-style:normal;font-variant:normal;font-weight:normal;font-stretch:normal;text-indent:0;text-align:start;text-decoration:none;line-height:normal;letter-spacing:normal;word-spacing:normal;text-transform:none;direction:ltr;block-progression:tb;writing-mode:lr-tb;text-anchor:start;baseline-shift:baseline;color:#000000;fill:#cccccf;fill-opacity:0.94117647;stroke:none;stroke-width:0.49999997;marker:none;visibility:visible;display:inline;overflow:visible;enable-background:accumulate;font-family:Sans;-inkscape-font-specification:Sans" />
      <path
         inkscape:connector-curvature="0"
         style="font-size:medium;font-style:normal;font-variant:normal;font-weight:normal;font-stretch:normal;text-indent:0;text-align:start;text-decoration:none;line-height:normal;letter-spacing:normal;word-spacing:normal;text-transform:none;direction:ltr;block-progression:tb;writing-mode:lr-tb;text-anchor:start;baseline-shift:baseline;color:#000000;fill:#cccccf;fill-opacity:0.94117647;stroke:none;stroke-width:0.5;marker:none;visibility:visible;display:inline;overflow:visible;enable-background:accumulate;font-family:Sans;-inkscape-font-specification:Sans"
         d="m 20.990714,78.874939 0,0.5 7.875,0 0,-0.5 -7.875,0 z m 9.875,0 0,0.5 2.125,0 0,-0.5 -2.125,0 z"
         id="path4484" />
      <path
         inkscape:connector-curvature="0"
         id="rect4486"
         d="m 28.625,77.25 0,0.25 0,3.25 0,0.25 0.25,0 2,0 0.25,0 0,-0.25 0,-3.25 0,-0.25 -0.25,0 -2,0 -0.25,0 z m 0.5,0.5 1.5,0 0,2.75 -1.5,0 0,-2.75 z"
         style="font-size:medium;font-style:normal;font-variant:normal;font-weight:normal;font-stretch:normal;text-indent:0;text-align:start;text-decoration:none;line-height:normal;letter-spacing:normal;word-spacing:normal;text-transform:none;direction:ltr;block-progression:tb;writing-mode:lr-tb;text-anchor:start;baseline-shift:baseline;color:#000000;fill:#cccccf;fill-opacity:0.94117647;stroke:none;stroke-width:0.49999997;marker:none;visibility:visible;display:inline;overflow:visible;enable-background:accumulate;font-family:Sans;-inkscape-font-specification:Sans" />
    </g>
    <path
       style="fill:#cccccf;fill-opacity:0.94117647;stroke:none"
       d="m 31.490714,0 c -6.416453,0 -10.5,6 -10.5,6 0,0 0.223513,0.2756585 0.53125,0.65625 0.146457,0.1843027 0.208292,0.2738277 0.4375,0.53125 0.124702,0.1410043 0.226271,0.2497232 0.375,0.40625 0.102163,0.1075802 0.167865,0.1992747 0.28125,0.3125 0.06931,0.069508 0.145268,0.1163346 0.21875,0.1875 0.04524,0.043807 0.109445,0.080661 0.15625,0.125 0.269371,0.25518 0.523772,0.5179579 0.84375,0.78125 0.212423,0.1749067 0.422229,0.3587893 0.65625,0.53125 0.325417,0.2401411 0.665865,0.4629 1.03125,0.6875 l 3.1875,-3.1875 C 28.58738,6.7044877 28.490714,6.3693506 28.490714,6 c 0,-1.6569 1.343146,-3 3,-3 0.36934,0 0.70449,0.096669 1.03125,0.21875 l 2.5625,-2.5625 C 34.91395,0.5948761 34.728516,0.55445992 34.553214,0.5 34.447966,0.46779188 34.347833,0.40430609 34.240714,0.375 34.189708,0.36075293 34.135871,0.35733164 34.084464,0.34375 33.847148,0.28105121 33.611683,0.23465706 33.365714,0.1875 33.066464,0.13012791 32.771835,0.09319949 32.459464,0.0625 32.147093,0.03180051 31.81655,0 31.490714,0 z m 3.90625,0.78125 -9.59375,9.59375 c 0.54664,0.319029 1.155511,0.597942 1.78125,0.84375 L 37.178214,1.625 C 36.631574,1.3059709 36.022703,1.0270585 35.396964,0.78125 z m 2.0625,1 -3.1875,3.1875 c 0.122084,0.3267623 0.21875,0.6618994 0.21875,1.03125 0,1.6569 -1.343146,3 -3,3 -0.36934,0 -0.70449,-0.09667 -1.03125,-0.21875 l -2.5625,2.5625 c 0.171862,0.06186 0.353991,0.102005 0.53125,0.15625 0.156596,0.04865 0.30827,0.113851 0.46875,0.15625 0.237316,0.0627 0.472781,0.109093 0.71875,0.15625 0.29925,0.05737 0.593879,0.0943 0.90625,0.125 0.312371,0.0307 0.642914,0.0625 0.96875,0.0625 6.416453,0 10.5,-6 10.5,-6 0,0 -0.221633,-0.2841928 -0.3125,-0.40625 -0.10176,-0.1309266 -0.286587,-0.3528166 -0.4375,-0.53125 -0.122918,-0.1431232 -0.285528,-0.3356878 -0.4375,-0.5 C 40.669759,4.4186071 40.520329,4.2488062 40.365714,4.09375 40.303794,4.031913 40.212183,3.9694098 40.146964,3.90625 40.101414,3.862139 40.037848,3.825885 39.990714,3.78125 39.721343,3.52607 39.466942,3.2632921 39.146964,3 38.936193,2.826568 38.722591,2.6398635 38.490714,2.46875 38.472778,2.455532 38.446275,2.4506886 38.428214,2.4375 38.119381,2.2117563 37.80373,1.9928683 37.459464,1.78125 z"
       id="path7914"
       inkscape:connector-curvature="0"
       inkscape:export-filename="/Users/tgunnoe/Working/worldview/web/images/wv.layers/path3984.png"
       inkscape:export-xdpi="90"
       inkscape:export-ydpi="90" />
    <path
       style="fill:#000000;fill-opacity:1;stroke:none"
       d="M 10.490715,0 C 4.0742615,0 -0.00928541,6 -0.00928541,6 c 0,0 4.08354741,6 10.50000041,6 6.416453,0 10.5,-6 10.5,-6 0,0 -4.083547,-6 -10.5,-6 z m 0,3 c 1.656854,0 3,1.3431457 3,3 0,1.6568543 -1.343146,3 -3,3 C 8.8338603,9 7.4907146,7.6568543 7.4907146,6 c 0,-1.6568543 1.3431457,-3 3.0000004,-3 z"
       id="path7389"
       inkscape:connector-curvature="0" />
    <path
       style="font-size:medium;font-style:normal;font-variant:normal;font-weight:normal;font-stretch:normal;text-indent:0;text-align:start;text-decoration:none;line-height:normal;letter-spacing:normal;word-spacing:normal;text-transform:none;direction:ltr;block-progression:tb;writing-mode:lr-tb;text-anchor:start;baseline-shift:baseline;color:#000000;fill:#000000;fill-opacity:1;stroke:none;stroke-width:7;marker:none;visibility:visible;display:inline;overflow:visible;enable-background:accumulate;font-family:Sans;-inkscape-font-specification:Sans"
       d="m 0.38105459,24 -0.39034,0.387889 L 5.6003746,30 -0.00928541,35.60966 0.38105459,36 5.9907146,30.390344 11.600375,36 11.990715,35.60966 6.3810546,30 11.990715,24.387889 11.600375,24 5.9907146,29.609656 0.38105459,24 z"
       id="path3154"
       inkscape:connector-curvature="0" />
    <path
       inkscape:connector-curvature="0"
       id="path3984"
       d="M 21.381054,24 20.990714,24.387889 26.600374,30 20.990714,35.60966 21.381054,36 26.990714,30.390344 32.600374,36 32.990714,35.60966 27.381054,30 32.990714,24.387889 32.600374,24 26.990714,29.609656 21.381054,24 z"
       style="font-size:medium;font-style:normal;font-variant:normal;font-weight:normal;font-stretch:normal;text-indent:0;text-align:start;text-decoration:none;line-height:normal;letter-spacing:normal;word-spacing:normal;text-transform:none;direction:ltr;block-progression:tb;writing-mode:lr-tb;text-anchor:start;baseline-shift:baseline;color:#000000;fill:#cccccf;fill-opacity:0.94117647;stroke:none;stroke-width:7;marker:none;visibility:visible;display:inline;overflow:visible;enable-background:accumulate;font-family:Sans;-inkscape-font-specification:Sans"
       inkscape:export-filename="/Users/tgunnoe/Working/worldview/web/images/wv.layers/path3984.png"
       inkscape:export-xdpi="90"
       inkscape:export-ydpi="90" />
    <path
       style="fill:#cccccf;fill-opacity:0.94117647;stroke:none"
       d="m 52.490714,0 c -6.416453,0 -10.5,6 -10.5,6 0,0 0.223513,0.2756585 0.53125,0.65625 0.146457,0.1843027 0.208292,0.2738277 0.4375,0.53125 0.124702,0.1410043 0.226271,0.2497232 0.375,0.40625 0.102163,0.1075802 0.167865,0.1992747 0.28125,0.3125 0.06931,0.069508 0.145268,0.1163346 0.21875,0.1875 0.04524,0.043807 0.109445,0.080661 0.15625,0.125 0.269371,0.25518 0.523772,0.5179579 0.84375,0.78125 0.212423,0.1749067 0.422229,0.3587893 0.65625,0.53125 0.12516,0.092362 0.276079,0.161687 0.40625,0.25 l 3.625,-3.625 C 49.517936,6.1028384 49.490714,6.0548353 49.490714,6 c 0,-1.6569 1.343146,-3 3,-3 0.05483,0 0.102839,0.027222 0.15625,0.03125 l 2.625,-2.625 C 55.259218,0.40183241 55.253642,0.37853694 55.240714,0.375 55.189708,0.36075293 55.135871,0.35733164 55.084464,0.34375 54.847148,0.28105121 54.611683,0.23465706 54.365714,0.1875 54.066464,0.13012791 53.771835,0.09319949 53.459464,0.0625 53.147093,0.03180051 52.81655,0 52.490714,0 z m 4.59375,0.15625 -10.4375,10.4375 1.25,1.25 10.4375,-10.4375 -1.25,-1.25 z m 2,2.0625 -3.625,3.59375 c 0.0057,0.06354 0.03125,0.1219497 0.03125,0.1875 0,1.6569 -1.343146,3 -3,3 -0.06555,0 -0.123961,-0.025559 -0.1875,-0.03125 l -2.625,2.625 c 0.07143,0.02532 0.144929,0.043 0.21875,0.0625 0.237316,0.0627 0.472781,0.109093 0.71875,0.15625 0.29925,0.05737 0.593879,0.0943 0.90625,0.125 0.312371,0.0307 0.642914,0.0625 0.96875,0.0625 6.416453,0 10.5,-6 10.5,-6 0,0 -0.221633,-0.2841928 -0.3125,-0.40625 -0.10176,-0.1309266 -0.286587,-0.3528166 -0.4375,-0.53125 -0.122918,-0.1431232 -0.285528,-0.3356878 -0.4375,-0.5 C 61.669759,4.4186071 61.520329,4.2488062 61.365714,4.09375 61.303784,4.031913 61.212183,3.9694098 61.146964,3.90625 61.101414,3.862139 61.037848,3.825885 60.990714,3.78125 60.721343,3.52607 60.466942,3.2632921 60.146964,3 59.936193,2.826568 59.722591,2.6398635 59.490714,2.46875 59.472778,2.455532 59.446275,2.4506886 59.428214,2.4375 59.320717,2.3589244 59.194532,2.2956469 59.084464,2.21875 z"
       id="path3990"
       inkscape:connector-curvature="0"
       inkscape:export-filename="/Users/tgunnoe/Working/worldview/web/images/wv.layers/path3984.png"
       inkscape:export-xdpi="90"
       inkscape:export-ydpi="90" />
    <path
       inkscape:connector-curvature="0"
       id="path2997"
       d="m 73.490714,0 c -6.416453,0 -10.5,6 -10.5,6 0,0 0.223513,0.2756585 0.53125,0.65625 0.146457,0.1843027 0.208292,0.2738277 0.4375,0.53125 0.124702,0.1410043 0.226271,0.2497232 0.375,0.40625 0.102163,0.1075802 0.167865,0.1992747 0.28125,0.3125 0.06931,0.069508 0.145268,0.1163346 0.21875,0.1875 0.04524,0.043807 0.109445,0.080661 0.15625,0.125 0.269371,0.25518 0.523772,0.5179579 0.84375,0.78125 0.212423,0.1749067 0.422229,0.3587893 0.65625,0.53125 0.12516,0.092362 0.276079,0.161687 0.40625,0.25 l 3.625,-3.625 C 70.517936,6.1028384 70.490714,6.0548353 70.490714,6 c 0,-1.6569 1.343146,-3 3,-3 0.05483,0 0.102839,0.027222 0.15625,0.03125 l 2.625,-2.625 C 76.259218,0.40183241 76.253642,0.37853694 76.240714,0.375 76.189708,0.36075293 76.135871,0.35733164 76.084464,0.34375 75.847148,0.28105121 75.611683,0.23465706 75.365714,0.1875 75.066464,0.13012791 74.771835,0.09319949 74.459464,0.0625 74.147093,0.03180051 73.81655,0 73.490714,0 z m 4.59375,0.15625 -10.4375,10.4375 1.25,1.25 10.4375,-10.4375 -1.25,-1.25 z m 2,2.0625 -3.625,3.59375 c 0.0057,0.06354 0.03125,0.1219497 0.03125,0.1875 0,1.6569 -1.343146,3 -3,3 -0.06555,0 -0.123961,-0.025559 -0.1875,-0.03125 l -2.625,2.625 c 0.07143,0.02532 0.144929,0.043 0.21875,0.0625 0.237316,0.0627 0.472781,0.109093 0.71875,0.15625 0.29925,0.05737 0.593879,0.0943 0.90625,0.125 0.312371,0.0307 0.642914,0.0625 0.96875,0.0625 6.416453,0 10.5,-6 10.5,-6 0,0 -0.221633,-0.2841928 -0.3125,-0.40625 -0.10176,-0.1309266 -0.286587,-0.3528166 -0.4375,-0.53125 -0.122918,-0.1431232 -0.285528,-0.3356878 -0.4375,-0.5 C 82.669759,4.4186071 82.520329,4.2488062 82.365714,4.09375 82.303784,4.031913 82.212183,3.9694098 82.146964,3.90625 82.101414,3.862139 82.037848,3.825885 81.990714,3.78125 81.721343,3.52607 81.466942,3.2632921 81.146964,3 80.936193,2.826568 80.722591,2.6398635 80.490714,2.46875 80.472778,2.455532 80.446275,2.4506886 80.428214,2.4375 80.320717,2.3589244 80.194532,2.2956469 80.084464,2.21875 z"
       style="fill:#000000;fill-opacity:1;stroke:none" />
    <g
       id="g4458"
       transform="translate(14.84375,45.999939)">
      <path
         id="path4367"
         transform="translate(-0.00928596,0)"
         d="m -14.84375,24.625 0,0.5 5.09375,0 0,-0.5 -5.09375,0 z m 7.09375,0 0,0.5 4.90625,0 0,-0.5 -4.90625,0 z"
         style="font-size:medium;font-style:normal;font-variant:normal;font-weight:normal;font-stretch:normal;text-indent:0;text-align:start;text-decoration:none;line-height:normal;letter-spacing:normal;word-spacing:normal;text-transform:none;direction:ltr;block-progression:tb;writing-mode:lr-tb;text-anchor:start;baseline-shift:baseline;color:#000000;fill:#000000;fill-opacity:1;stroke:none;stroke-width:0.5;marker:none;visibility:visible;display:inline;overflow:visible;enable-background:accumulate;font-family:Sans;-inkscape-font-specification:Sans"
         inkscape:connector-curvature="0" />
      <rect
         y="23.250061"
         x="-9.7594299"
         height="3.25"
         width="2"
         id="rect4383"
         style="fill:none;stroke:#000000;stroke-width:0.49999997;stroke-miterlimit:4;stroke-opacity:1;stroke-dasharray:none" />
      <path
         id="path4373"
         transform="translate(-0.00928596,0)"
         d="m -14.84375,28.75 0,0.5 1.78125,0 0,-0.5 -1.78125,0 z m 3.78125,0 0,0.5 8.21875,0 0,-0.5 -8.21875,0 z"
         style="font-size:medium;font-style:normal;font-variant:normal;font-weight:normal;font-stretch:normal;text-indent:0;text-align:start;text-decoration:none;line-height:normal;letter-spacing:normal;word-spacing:normal;text-transform:none;direction:ltr;block-progression:tb;writing-mode:lr-tb;text-anchor:start;baseline-shift:baseline;color:#000000;fill:#000000;fill-opacity:1;stroke:none;stroke-width:0.5;marker:none;visibility:visible;display:inline;overflow:visible;enable-background:accumulate;font-family:Sans;-inkscape-font-specification:Sans"
         inkscape:connector-curvature="0" />
      <rect
         style="fill:none;stroke:#000000;stroke-width:0.49999997;stroke-miterlimit:4;stroke-opacity:1;stroke-dasharray:none"
         id="rect4407"
         width="2"
         height="3.25"
         x="-13.080215"
         y="27.375061" />
      <path
         id="path4375"
         transform="translate(-0.00928596,0)"
         d="m -14.84375,32.875 0,0.5 7.875,0 0,-0.5 -7.875,0 z m 9.875,0 0,0.5 2.125,0 0,-0.5 -2.125,0 z"
         style="font-size:medium;font-style:normal;font-variant:normal;font-weight:normal;font-stretch:normal;text-indent:0;text-align:start;text-decoration:none;line-height:normal;letter-spacing:normal;word-spacing:normal;text-transform:none;direction:ltr;block-progression:tb;writing-mode:lr-tb;text-anchor:start;baseline-shift:baseline;color:#000000;fill:#000000;fill-opacity:1;stroke:none;stroke-width:0.5;marker:none;visibility:visible;display:inline;overflow:visible;enable-background:accumulate;font-family:Sans;-inkscape-font-specification:Sans"
         inkscape:connector-curvature="0" />
      <rect
         y="31.500061"
         x="-6.9669518"
         height="3.25"
         width="2"
         id="rect4409"
         style="fill:none;stroke:#000000;stroke-width:0.49999997;stroke-miterlimit:4;stroke-opacity:1;stroke-dasharray:none" />
    </g>
    <path
       style="opacity:1;fill:#cccccf;fill-opacity:0.94117647;stroke:none;stroke-width:3;stroke-linecap:round;stroke-miterlimit:4;stroke-dasharray:none;stroke-dashoffset:0;stroke-opacity:1"
       d="M 7.4911016,53.999998 A 7.4999623,7.4999623 0 0 0 -0.00928595,61.499613 7.4999623,7.4999623 0 0 0 7.4911016,69 7.4999623,7.4999623 0 0 0 14.990714,61.499613 7.4999623,7.4999623 0 0 0 7.4911016,53.999998 Z m 0,1.823561 a 5.676263,5.676263 0 0 1 5.6760524,5.676054 5.676263,5.676263 0 0 1 -1.122965,3.378194 L 4.1121303,56.945749 a 5.676263,5.676263 0 0 1 3.3789713,-1.12219 z M 2.8380404,58.250838 10.736,66.148797 A 5.676263,5.676263 0 0 1 7.4911016,67.17644 5.676263,5.676263 0 0 1 1.8142741,61.499613 5.676263,5.676263 0 0 1 2.8380404,58.250838 Z"
       id="path4178"
       inkscape:connector-curvature="0" />
  </g>
</svg>
