<?xml version="1.0" encoding="utf-8"?>
<!-- Generator: Adobe Illustrator 16.0.0, SVG Export Plug-In . SVG Version: 6.00 Build 0)  -->
<!DOCTYPE svg PUBLIC "-//W3C//DTD SVG 1.1 Tiny//EN" "http://www.w3.org/Graphics/SVG/1.1/DTD/svg11-tiny.dtd">
<svg version="1.1" baseProfile="tiny" id="Layer_1" xmlns="http://www.w3.org/2000/svg" xmlns:xlink="http://www.w3.org/1999/xlink"
	 x="0px" y="0px" width="37.5px" height="37.167px" viewBox="0 0 37.5 37.167" xml:space="preserve">
<path fill="#FFFFFF" d="M33.787,0H4.714C2.666,0,1,1.7,1,3.789v23.345c0,2.089,1.666,3.789,3.714,3.789h29.073
	c2.047,0,3.712-1.7,3.713-3.789V3.789C37.5,1.7,35.834,0,33.787,0z M30.909,3.042h3.042V6.59h-3.042V3.042z M25.333,3.042h4.056
	V6.59h-4.056V3.042z M19.757,3.042h4.055V6.59h-4.055V3.042z M14.18,3.042h4.056V6.59H14.18V3.042z M9.111,3.042h3.549V6.59H9.111
	V3.042z M4.549,3.042H7.59V6.59H4.549V3.042z M7.59,27.881H4.549v-3.042H7.59V27.881z M12.66,27.881H9.111v-3.042h3.549V27.881z
	 M17.729,27.881H14.18v-3.042h3.549V27.881z M15.701,23.826H12.66v-0.055h-2.028v0.055H8.097v-0.055H6.069v0.055H5.056v-0.055H4.549
	V8.055h13.687v15.772h-0.507v-0.056h-2.028V23.826z M23.812,27.881H19.25v-3.042h4.562V27.881z M29.389,27.881h-4.056v-3.042h4.056
	V27.881z M33.951,27.881h-3.042v-3.042h3.042V27.881z M33.951,23.771h-0.507v0.055h-1.521v-0.055h-2.027v0.055h-2.028v-0.055H25.84
	v0.055h-3.042v-0.055h-2.028v0.055h-0.507V8.055h13.687V23.771z"/>
</svg>
