<?xml version="1.0" encoding="utf-8"?>
<!-- Generator: Adobe Illustrator 16.0.0, SVG Export Plug-In . SVG Version: 6.00 Build 0)  -->
<!DOCTYPE svg PUBLIC "-//W3C//DTD SVG 1.1//EN" "http://www.w3.org/Graphics/SVG/1.1/DTD/svg11.dtd">
<svg version="1.1" id="Layer_1" xmlns="http://www.w3.org/2000/svg" xmlns:xlink="http://www.w3.org/1999/xlink" x="0px" y="0px"
	 width="90px" height="99.333px" viewBox="0 0 90 99.333" enable-background="new 0 0 90 99.333" xml:space="preserve">
<path fill="#FFFFFF" d="M74.3,75.167H19.7c-4.521,0-8.2-3.619-8.2-8.066V14.233c0-4.448,3.679-8.067,8.2-8.067h54.6
	c4.521,0,8.2,3.619,8.2,8.067V67.1C82.5,71.547,78.82,75.167,74.3,75.167z M19.5,67.097c0.006,0,0.061,0.069,0.2,0.069h54.6
	c0.154,0,0.205-0.084,0.205-0.086L74.5,14.235c0.001-0.001-0.049-0.069-0.2-0.069H19.7c-0.154,0-0.205,0.084-0.205,0.085
	L19.5,67.097L19.5,67.097z"/>
<polygon fill="#FFFFFF" points="40.7,19.833 52.309,19.833 52.309,37.003 64.456,37.003 45.725,51.833 29.333,37.003 40.7,37.003 
	"/>
<path fill="#FFFFFF" d="M64.5,49.167h-9.877l-8.797,6.963l-7.698-6.963H30.5c-2.209,0-4,1.791-4,4v3c0,2.209,1.791,4,4,4h34
	c2.209,0,4-1.791,4-4v-3C68.5,50.958,66.709,49.167,64.5,49.167z M56.5,56.417c-1.242,0-2.25-1.008-2.25-2.25
	c0-1.243,1.008-2.25,2.25-2.25s2.25,1.007,2.25,2.25C58.75,55.409,57.742,56.417,56.5,56.417z M62.5,56.417
	c-1.242,0-2.25-1.008-2.25-2.25c0-1.243,1.008-2.25,2.25-2.25s2.25,1.007,2.25,2.25C64.75,55.409,63.742,56.417,62.5,56.417z"/>
<g enable-background="new    ">
	<path fill="#FFFFFF" d="M12.594,95.588V84.166h8.47v1.932H14.9v2.532h5.735v1.925H14.9v3.109h6.382v1.925H12.594z"/>
	<path fill="#FFFFFF" d="M23.258,95.588l3.904-5.96l-3.538-5.463h2.696l2.292,3.67l2.244-3.67h2.673l-3.554,5.547l3.904,5.876
		h-2.782l-2.533-3.951l-2.54,3.951H23.258z"/>
	<path fill="#FFFFFF" d="M36.244,95.588V84.166h3.701c1.403,0,2.316,0.057,2.743,0.171c0.655,0.172,1.203,0.545,1.645,1.117
		c0.441,0.575,0.663,1.317,0.663,2.226c0,0.701-0.128,1.291-0.382,1.769c-0.255,0.479-0.578,0.854-0.97,1.126
		c-0.393,0.272-0.792,0.453-1.197,0.542c-0.55,0.108-1.348,0.163-2.392,0.163H38.55v4.31H36.244z M38.55,86.097v3.241h1.263
		c0.909,0,1.517-0.06,1.823-0.179c0.307-0.12,0.547-0.306,0.721-0.561c0.174-0.256,0.261-0.552,0.261-0.889
		c0-0.416-0.123-0.759-0.367-1.029c-0.244-0.27-0.553-0.438-0.928-0.506c-0.275-0.051-0.828-0.078-1.659-0.078H38.55z"/>
	<path fill="#FFFFFF" d="M47.602,89.947c0-1.165,0.174-2.14,0.522-2.931c0.259-0.581,0.613-1.104,1.062-1.565
		s0.941-0.805,1.478-1.029c0.711-0.3,1.533-0.451,2.462-0.451c1.684,0,3.03,0.521,4.04,1.566c1.011,1.044,1.517,2.496,1.517,4.355
		c0,1.844-0.501,3.288-1.505,4.329c-1.003,1.041-2.343,1.562-4.019,1.562c-1.701,0-3.053-0.52-4.054-1.555
		C48.103,93.192,47.602,91.765,47.602,89.947z M49.978,89.869c0,1.294,0.299,2.274,0.897,2.941c0.597,0.667,1.354,1.002,2.274,1.002
		c0.919,0,1.674-0.332,2.264-0.994c0.59-0.663,0.885-1.655,0.885-2.98c0-1.31-0.287-2.286-0.861-2.93
		c-0.573-0.645-1.336-0.966-2.287-0.966c-0.95,0-1.717,0.326-2.3,0.978C50.27,87.572,49.978,88.555,49.978,89.869z"/>
	<path fill="#FFFFFF" d="M61.671,95.588V84.166h4.855c1.219,0,2.106,0.103,2.661,0.308c0.552,0.205,0.995,0.57,1.327,1.095
		c0.332,0.525,0.5,1.124,0.5,1.799c0,0.857-0.253,1.565-0.758,2.124c-0.503,0.559-1.255,0.91-2.259,1.056
		c0.499,0.291,0.911,0.61,1.235,0.959c0.325,0.349,0.762,0.966,1.312,1.854l1.396,2.229h-2.759l-1.668-2.485
		c-0.591-0.889-0.997-1.448-1.217-1.679c-0.218-0.231-0.447-0.391-0.691-0.477s-0.632-0.129-1.161-0.129h-0.469v4.77H61.671z
		 M63.977,88.997h1.707c1.107,0,1.797-0.047,2.073-0.141c0.276-0.093,0.49-0.255,0.646-0.482c0.158-0.229,0.234-0.515,0.234-0.857
		c0-0.385-0.102-0.695-0.307-0.931c-0.207-0.237-0.494-0.387-0.871-0.449c-0.186-0.026-0.747-0.039-1.681-0.039h-1.802V88.997z"/>
	<path fill="#FFFFFF" d="M76.94,95.588v-9.491H73.55v-1.932h9.079v1.932h-3.383v9.491H76.94z"/>
</g>
</svg>
