<?xml version="1.0" encoding="utf-8"?>
<!-- Generator: Adobe Illustrator 16.0.0, SVG Export Plug-In . SVG Version: 6.00 Build 0)  -->
<!DOCTYPE svg PUBLIC "-//W3C//DTD SVG 1.1//EN" "http://www.w3.org/Graphics/SVG/1.1/DTD/svg11.dtd">
<svg version="1.1" id="Layer_1" xmlns="http://www.w3.org/2000/svg" xmlns:xlink="http://www.w3.org/1999/xlink" x="0px" y="0px"
	 width="90px" height="99.333px" viewBox="0 0 90 99.333" enable-background="new 0 0 90 99.333" xml:space="preserve">
<g>
	<path fill="#FFFFFF" d="M27.705,4.164H9.429c-1.783,0-3.179,1.177-3.179,2.678V22.47c0,1.502,1.396,2.677,3.179,2.677h3.396
		l-0.042,3.628c-0.006,0.504,0.532,0.919,1.202,0.926l0.404,0.005c0.669,0.009,10.378-6.445,10.378-6.445s-9.559-6.476-10.229-6.483
		l-0.403-0.005c-0.67-0.007-1.217,0.395-1.223,0.899l-0.05,4.297H9.429V7.342h18.276V21.97l-2.94,3.177h2.94
		c1.782,0,3.179-1.175,3.179-2.678V6.842C30.883,5.34,29.487,4.164,27.705,4.164z"/>
	<polygon fill="#FFFFFF" points="8.422,33.157 7.348,33.157 7.348,38.436 11.093,38.436 11.093,37.539 8.422,37.539 	"/>
	<path fill="#FFFFFF" d="M14.96,33.024c-0.433,0-0.815,0.069-1.147,0.21c-0.249,0.104-0.479,0.263-0.688,0.479
		c-0.209,0.215-0.374,0.459-0.495,0.73c-0.163,0.367-0.244,0.822-0.244,1.364c0,0.847,0.234,1.512,0.7,1.996
		c0.468,0.482,1.097,0.725,1.888,0.725c0.782,0,1.406-0.245,1.873-0.728c0.468-0.486,0.701-1.158,0.701-2.018
		c0-0.866-0.235-1.543-0.706-2.029C16.371,33.267,15.744,33.024,14.96,33.024z M16.025,37.145c-0.274,0.309-0.626,0.464-1.054,0.464
		c-0.428,0-0.782-0.157-1.06-0.468c-0.278-0.311-0.418-0.767-0.418-1.37c0-0.613,0.135-1.071,0.408-1.374
		c0.271-0.304,0.628-0.455,1.071-0.455c0.443,0,0.798,0.15,1.065,0.45c0.268,0.301,0.401,0.755,0.401,1.364
		C16.438,36.374,16.3,36.835,16.025,37.145z"/>
	<path fill="#FFFFFF" d="M21.487,33.024c-0.435,0-0.817,0.069-1.148,0.21c-0.249,0.104-0.479,0.263-0.688,0.479
		c-0.21,0.215-0.375,0.459-0.495,0.73c-0.162,0.367-0.244,0.822-0.244,1.364c0,0.847,0.234,1.513,0.702,1.996
		c0.467,0.482,1.096,0.725,1.887,0.725c0.783,0,1.406-0.245,1.873-0.728c0.468-0.486,0.702-1.158,0.702-2.018
		c0-0.866-0.236-1.543-0.708-2.029C22.897,33.267,22.271,33.024,21.487,33.024z M22.552,37.145
		c-0.274,0.309-0.627,0.464-1.055,0.464c-0.428,0-0.782-0.157-1.06-0.468s-0.417-0.767-0.417-1.37c0-0.613,0.135-1.07,0.406-1.374
		s0.629-0.455,1.071-0.455c0.443,0,0.799,0.15,1.067,0.45c0.265,0.301,0.4,0.755,0.4,1.364
		C22.964,36.374,22.826,36.835,22.552,37.145z"/>
	<path fill="#FFFFFF" d="M28.657,33.193c-0.198-0.053-0.624-0.08-1.277-0.08h-1.725v5.323l1.075-0.001v-2.007h0.701
		c0.486,0,0.857-0.025,1.114-0.076c0.189-0.041,0.375-0.126,0.557-0.253s0.334-0.301,0.453-0.524
		c0.117-0.222,0.177-0.498,0.177-0.824c0-0.423-0.103-0.768-0.308-1.037C29.217,33.447,28.963,33.273,28.657,33.193z M28.504,35.18
		c-0.081,0.118-0.194,0.205-0.337,0.261c-0.141,0.056-0.425,0.084-0.849,0.084H26.73v-1.512l0.52,0.001
		c0.386,0,0.645,0.013,0.773,0.037c0.173,0.031,0.319,0.11,0.431,0.235c0.114,0.126,0.17,0.286,0.17,0.479
		C28.624,34.923,28.585,35.06,28.504,35.18z"/>
</g>
</svg>
