<?xml version="1.0" encoding="utf-8"?>
<!-- Generator: Adobe Illustrator 16.0.0, SVG Export Plug-In . SVG Version: 6.00 Build 0)  -->
<!DOCTYPE svg PUBLIC "-//W3C//DTD SVG 1.1//EN" "http://www.w3.org/Graphics/SVG/1.1/DTD/svg11.dtd">
<svg version="1.1" id="Layer_1" xmlns="http://www.w3.org/2000/svg" xmlns:xlink="http://www.w3.org/1999/xlink" x="0px" y="0px"
	 width="90px" height="99.333px" viewBox="0 0 90 99.333" enable-background="new 0 0 90 99.333" xml:space="preserve">
<path fill="#FFFFFF" d="M38.837,61.198c0,4.145-3.105,7.506-6.937,7.506l0,0c-3.833,0-6.938-3.359-6.938-7.506V27.704
	c0-4.146,3.105-7.506,6.938-7.506l0,0c3.832,0,6.937,3.36,6.937,7.506V61.198z"/>
<g>
	<path fill="#FFFFFF" d="M25.988,83.961v-7.274h2.357c0.893,0,1.476,0.037,1.747,0.108c0.417,0.108,0.766,0.348,1.047,0.713
		c0.281,0.365,0.422,0.838,0.422,1.416c0,0.447-0.081,0.822-0.243,1.127s-0.368,0.543-0.618,0.717s-0.504,0.289-0.762,0.345
		c-0.351,0.069-0.858,0.104-1.523,0.104h-0.958v2.744H25.988L25.988,83.961z M27.458,77.917v2.064h0.804
		c0.579,0,0.966-0.038,1.161-0.113c0.195-0.076,0.349-0.195,0.459-0.357c0.11-0.161,0.166-0.352,0.166-0.564
		c0-0.265-0.078-0.482-0.233-0.654c-0.155-0.172-0.352-0.279-0.59-0.322c-0.175-0.032-0.528-0.049-1.057-0.049h-0.71V77.917z"/>
	<path fill="#FFFFFF" d="M39.59,83.961h-1.598l-0.635-1.651h-2.908l-0.601,1.651H32.29l2.833-7.274h1.554L39.59,83.961z
		 M36.885,81.083l-1.002-2.699l-0.982,2.699H36.885z"/>
	<path fill="#FFFFFF" d="M41.375,76.687h1.469v3.94c0,0.625,0.019,1.031,0.055,1.215c0.063,0.299,0.213,0.537,0.449,0.718
		c0.236,0.181,0.56,0.271,0.97,0.271c0.417,0,0.731-0.084,0.944-0.256c0.211-0.171,0.337-0.379,0.38-0.627s0.064-0.66,0.064-1.236
		v-4.023h1.469v3.82c0,0.873-0.039,1.49-0.119,1.852c-0.078,0.361-0.226,0.665-0.438,0.913c-0.215,0.248-0.499,0.444-0.855,0.595
		c-0.357,0.146-0.825,0.221-1.401,0.221c-0.694,0-1.222-0.08-1.581-0.241c-0.359-0.16-0.643-0.369-0.851-0.625
		c-0.208-0.257-0.346-0.524-0.412-0.808c-0.096-0.416-0.144-1.031-0.144-1.847V76.687L41.375,76.687z"/>
	<path fill="#FFFFFF" d="M49.369,81.594l1.429-0.139c0.086,0.479,0.261,0.834,0.522,1.058c0.264,0.225,0.619,0.337,1.063,0.337
		c0.474,0,0.83-0.1,1.07-0.301c0.239-0.199,0.358-0.434,0.358-0.701c0-0.172-0.051-0.318-0.149-0.439
		c-0.103-0.121-0.276-0.226-0.529-0.314c-0.172-0.061-0.563-0.165-1.176-0.317c-0.787-0.194-1.34-0.437-1.657-0.72
		c-0.445-0.398-0.67-0.889-0.67-1.465c0-0.37,0.104-0.717,0.314-1.041c0.211-0.321,0.514-0.566,0.908-0.735
		c0.396-0.169,0.873-0.253,1.433-0.253c0.913,0,1.603,0.2,2.062,0.602c0.461,0.4,0.703,0.936,0.728,1.604l-1.47,0.064
		c-0.062-0.375-0.197-0.645-0.404-0.809s-0.518-0.246-0.932-0.246c-0.426,0-0.76,0.09-1.002,0.264
		c-0.156,0.111-0.231,0.264-0.231,0.453c0,0.172,0.071,0.317,0.218,0.439c0.188,0.154,0.637,0.316,1.352,0.484
		c0.713,0.17,1.242,0.345,1.584,0.524c0.343,0.181,0.609,0.427,0.805,0.739c0.193,0.312,0.291,0.699,0.291,1.158
		c0,0.418-0.116,0.809-0.348,1.172c-0.232,0.363-0.561,0.634-0.982,0.812c-0.423,0.176-0.951,0.264-1.583,0.264
		c-0.92,0-1.626-0.211-2.119-0.637C49.76,83.028,49.465,82.409,49.369,81.594z"/>
	<path fill="#FFFFFF" d="M57.537,83.961v-7.274h5.395v1.231h-3.925v1.613h3.652v1.225h-3.652v1.979h4.063v1.228h-5.533V83.961z"/>
</g>
<path fill="#FFFFFF" d="M64.838,61.198c0,4.145-3.105,7.506-6.938,7.506l0,0c-3.832,0-6.938-3.359-6.938-7.506V27.704
	c0-4.146,3.104-7.506,6.938-7.506l0,0c3.832,0,6.938,3.36,6.938,7.506V61.198z"/>
</svg>
